HIERARCHY
ROOT SpineBase
{
  OFFSET 0.000000 0.000000 0.000000
  CHANNELS 6 Xposition Yposition Zposition Zrotation Xrotation Yrotation
  JOINT SpineMid
  {
    OFFSET -0.000000 31.596324 0.000000
    CHANNELS 3 Zrotation Xrotation Yrotation
    JOINT SpineShoulder
    {
      OFFSET 0.136621 23.298671 -0.796672
      CHANNELS 3 Zrotation Xrotation Yrotation
      JOINT Neck
      {
        OFFSET 0.097793 7.686643 -0.621649
        CHANNELS 3 Zrotation Xrotation Yrotation
        JOINT Head
        {
          OFFSET -6.172733 11.303899 2.327850
          CHANNELS 3 Zrotation Xrotation Yrotation
          End Site
          {
            OFFSET 0 0 0
          }
        }
      }
      JOINT ShoulderLeft
      {
        OFFSET -16.671896 -9.124686 7.443193
        CHANNELS 3 Zrotation Xrotation Yrotation
        JOINT ElbowLeft
        {
          OFFSET -7.939907 -18.811836 -11.709294
          CHANNELS 3 Zrotation Xrotation Yrotation
          JOINT WristLeft
          {
            OFFSET 18.139756 2.476709 -14.999369
            CHANNELS 3 Zrotation Xrotation Yrotation
            JOINT HandLeft
            {
              OFFSET 6.257042 0.912685 -3.400818
              CHANNELS 3 Zrotation Xrotation Yrotation
              JOINT HandTipLeft
              {
                OFFSET 5.428470 4.305009 -2.987474
                CHANNELS 3 Zrotation Xrotation Yrotation
                End Site
                {
                  OFFSET 0 0 0
                }
              }
              JOINT ThumbLeft
              {
                OFFSET 5.897253 -4.086580 6.501667
                CHANNELS 3 Zrotation Xrotation Yrotation
                End Site
                {
                  OFFSET 0 0 0
                }
              }
            }
          }
        }
      }
      JOINT ShoulderRight
      {
        OFFSET 11.253658 -4.391099 -12.260768
        CHANNELS 3 Zrotation Xrotation Yrotation
        JOINT ElbowRight
        {
          OFFSET -9.530800 -18.705314 -10.693840
          CHANNELS 3 Zrotation Xrotation Yrotation
          JOINT WristRight
          {
            OFFSET -16.674238 0.436003 13.819722
            CHANNELS 3 Zrotation Xrotation Yrotation
            JOINT HandRight
            {
              OFFSET -4.072018 2.670290 5.184978
              CHANNELS 3 Zrotation Xrotation Yrotation
              JOINT HandTipRight
              {
                OFFSET -4.410630 2.927946 4.661188
                CHANNELS 3 Zrotation Xrotation Yrotation
                End Site
                {
                  OFFSET 0 0 0
                }
              }
              JOINT ThumbRight
              {
                OFFSET 6.305421 6.843543 -1.402258
                CHANNELS 3 Zrotation Xrotation Yrotation
                End Site
                {
                  OFFSET 0 0 0
                }
              }
            }
          }
        }
      }
    }
  }
  JOINT HipLeft
  {
    OFFSET -4.769349 -0.544010 -0.372284
    CHANNELS 3 Zrotation Xrotation Yrotation
    JOINT KneeLeft
    {
      OFFSET -1.209007 -32.899264 8.131865
      CHANNELS 3 Zrotation Xrotation Yrotation
      JOINT AnkleLeft
      {
        OFFSET 14.147092 -38.441319 12.234773
        CHANNELS 3 Zrotation Xrotation Yrotation
        JOINT FootLeft
        {
          OFFSET -0.072778 -8.576892 -3.707606
          CHANNELS 3 Zrotation Xrotation Yrotation
          End Site
          {
            OFFSET 0 0 0
          }
        }
      }
    }
  }
  JOINT HipRight
  {
    OFFSET 5.665633 1.856261 -7.280718
    CHANNELS 3 Zrotation Xrotation Yrotation
    JOINT KneeRight
    {
      OFFSET 8.281687 -35.932218 -6.357860
      CHANNELS 3 Zrotation Xrotation Yrotation
      JOINT AnkleRight
      {
        OFFSET 7.226427 -38.244962 5.771827
        CHANNELS 3 Zrotation Xrotation Yrotation
        JOINT FootRight
        {
          OFFSET -5.748461 -4.272440 -12.068444
          CHANNELS 3 Zrotation Xrotation Yrotation
          End Site
          {
            OFFSET 0 0 0
          }
        }
      }
    }
  }
}
MOTION
Frames: 6
Frame Time: 0.033333
-40.031562 82.574263 339.860503 0.000000 0.000000 33.506377 -0.000000 0.000000 -33.506377 -0.000000 0.000000 0.000000 -0.000000 0.000000 0.000000 0.000000 0.000000 0.000000 -0.000000 0.000000 0.000000 -0.000000 0.000000 0.000000 -0.000000 0.000000 0.000000 -0.000000 0.000000 0.000000 0.000000 0.000000 0.000000 0.000000 0.000000 0.000000 -0.000000 0.000000 0.000000 -0.000000 0.000000 0.000000 -0.000000 0.000000 0.000000 -0.000000 0.000000 0.000000 0.000000 0.000000 0.000000 0.000000 0.000000 0.000000 -0.000000 0.000000 -33.506377 -0.000000 0.000000 0.000000 -0.000000 0.000000 0.000000 0.000000 0.000000 0.000000 -0.000000 0.000000 -33.506377 -0.000000 0.000000 0.000000 -0.000000 0.000000 0.000000 0.000000 0.000000 0.000000
-40.021682 82.594644 339.835100 -0.010897 0.012825 33.630626 0.001970 -0.016714 -33.630625 -0.000000 0.000000 0.000000 -0.000000 0.000000 0.000000 0.000000 0.000000 0.000000 -0.000000 0.000000 0.000000 -0.000000 0.000000 0.000000 -0.093013 0.076296 -0.866888 0.948669 -0.614421 2.163673 0.000000 0.000000 0.000000 0.000000 0.000000 0.000000 -0.000000 0.000000 0.000000 -1.504250 -1.242600 0.924719 0.766290 1.239875 0.560804 0.411372 0.089410 -0.777696 0.000000 0.000000 0.000000 0.000000 0.000000 0.000000 0.001970 -0.016714 -33.630625 -0.000000 0.000000 0.000000 -10.577200 17.180543 5.661728 0.000000 0.000000 0.000000 0.001970 -0.016714 -33.630625 -0.000000 0.000000 0.000000 -0.000000 0.000000 0.000000 0.000000 0.000000 0.000000
-40.014546 82.616045 339.816491 -0.023016 0.019131 33.743717 0.008512 -0.028693 -33.743711 -0.000000 0.000000 0.000000 -0.000000 0.000000 0.000000 0.000000 0.000000 0.000000 0.717866 0.490449 -0.656893 -0.712223 -0.498609 0.650722 -0.198748 0.115061 -1.516741 1.807365 -0.970695 3.796138 0.000000 0.000000 0.000000 0.000000 0.000000 0.000000 -0.000000 0.000000 0.000000 -2.670123 -2.233392 1.623798 1.376682 2.191581 1.002771 0.769129 0.201777 -1.365643 0.000000 0.000000 0.000000 0.000000 0.000000 0.000000 0.008512 -0.028693 -33.743711 -0.000000 0.000000 0.000000 -19.886236 28.369694 12.122437 0.000000 0.000000 0.000000 0.008512 -0.028693 -33.743711 -0.000000 0.000000 0.000000 -0.000000 0.000000 0.000000 0.000000 0.000000 0.000000
-40.010153 82.638465 339.804676 -0.036359 0.018898 33.845818 0.019672 -0.035945 -33.845806 -0.000000 0.000000 0.000000 -0.000000 0.000000 0.000000 0.000000 0.000000 0.000000 0.952134 0.634608 -0.865823 -0.942496 -0.648836 0.855213 -0.316550 0.113023 -1.924494 2.529630 -1.074437 4.826911 0.000000 0.000000 0.000000 0.000000 0.000000 0.000000 -0.000000 0.000000 0.000000 -3.504879 -2.957334 2.112006 1.812205 2.863096 1.339187 1.069632 0.338971 -1.761321 0.000000 0.000000 0.000000 0.000000 0.000000 0.000000 0.019672 -0.035945 -33.845806 -0.000000 0.000000 0.000000 -27.104387 34.819518 17.699449 0.000000 0.000000 0.000000 0.019672 -0.035945 -33.845806 -0.000000 0.000000 0.000000 -0.000000 0.000000 0.000000 0.000000 0.000000 0.000000
-40.008505 82.661905 339.799655 -0.050922 0.012109 33.937076 0.035488 -0.038475 -33.937059 -0.000000 0.000000 0.000000 -0.000000 0.000000 0.000000 0.000000 0.000000 0.000000 1.102523 0.712929 -0.994210 -1.090076 -0.731820 0.980389 -0.444733 0.068284 -2.074211 3.085377 -0.940361 5.215636 0.000000 0.000000 0.000000 0.000000 0.000000 0.000000 -0.000000 0.000000 0.000000 -4.015152 -3.405575 2.401089 2.060080 3.261815 1.580839 1.310422 0.503306 -1.964206 0.000000 0.000000 0.000000 0.000000 0.000000 0.000000 0.035488 -0.038475 -33.937059 -0.000000 0.000000 0.000000 -32.207073 38.424825 21.838268 0.000000 0.000000 0.000000 0.035488 -0.038475 -33.937059 -0.000000 0.000000 0.000000 -0.000000 0.000000 0.000000 0.000000 0.000000 0.000000
-40.009601 82.686364 339.801428 -0.066706 -0.001247 34.017624 0.055988 -0.036285 -34.017607 -0.000000 0.000000 0.000000 -0.000000 0.000000 0.000000 0.000000 0.000000 0.000000 1.168762 0.726087 -1.041730 -1.155467 -0.747065 1.026790 -0.580567 -0.019464 -1.960438 3.463381 -0.588139 4.955175 0.000000 0.000000 0.000000 0.000000 0.000000 0.000000 -0.000000 0.000000 0.000000 -4.205583 -3.573618 2.498699 2.112469 3.392977 1.735627 1.489509 0.697398 -1.974467 0.000000 0.000000 0.000000 0.000000 0.000000 0.000000 0.055988 -0.036285 -34.017607 -0.000000 0.000000 0.000000 -35.470087 40.370551 24.546102 0.000000 0.000000 0.000000 0.055988 -0.036285 -34.017607 -0.000000 0.000000 0.000000 -0.000000 0.000000 0.000000 0.000000 0.000000 0.000000
